<svg width="1200" height="1200" xmlns="http://www.w3.org/2000/svg" xmlns:xlink="http://www.w3.org/1999/xlink" version="1.1"><g transform="scale(2.109375) translate(28.444444444444443, 28.44443681504991)">            <linearGradient id="SvgjsLinearGradient1015"><stop id="SvgjsStop1016" stop-color="#147d6c" offset="0"/><stop id="SvgjsStop1017" stop-color="#1effff" offset="1"/></linearGradient><linearGradient id="SvgjsLinearGradient1018"><stop id="SvgjsStop1019" stop-color="#147d6c" offset="0"/><stop id="SvgjsStop1020" stop-color="#1effff" offset="1"/></linearGradient><linearGradient id="SvgjsLinearGradient1021"><stop id="SvgjsStop1022" stop-color="#147d6c" offset="0"/><stop id="SvgjsStop1023" stop-color="#1effff" offset="1"/></linearGradient><linearGradient id="SvgjsLinearGradient1024"><stop id="SvgjsStop1025" stop-color="#147d6c" offset="0"/><stop id="SvgjsStop1026" stop-color="#1effff" offset="1"/></linearGradient>            <g fill="url(#SvgjsLinearGradient1018)"><linearGradient id="SvgjsLinearGradient1015"><stop id="SvgjsStop1016" stop-color="#147d6c" offset="0"/><stop id="SvgjsStop1017" stop-color="#1effff" offset="1"/></linearGradient><linearGradient id="SvgjsLinearGradient1018"><stop id="SvgjsStop1019" stop-color="#147d6c" offset="0"/><stop id="SvgjsStop1020" stop-color="#1effff" offset="1"/></linearGradient><linearGradient id="SvgjsLinearGradient1021"><stop id="SvgjsStop1022" stop-color="#147d6c" offset="0"/><stop id="SvgjsStop1023" stop-color="#1effff" offset="1"/></linearGradient><linearGradient id="SvgjsLinearGradient1024"><stop id="SvgjsStop1025" stop-color="#147d6c" offset="0"/><stop id="SvgjsStop1026" stop-color="#1effff" offset="1"/></linearGradient><path xmlns="http://www.w3.org/2000/svg" d="M394.375,115.5L291.516,67.094c0.016-0.461,0.031-0.914,0.031-1.375c0-17.672-14.328-32-32-32  c-17.008,0-30.914,13.273-31.93,30.023L117.75,115.5H0v362.781h512V115.5H394.375z M259.547,55.055  c5.883,0,10.672,4.781,10.672,10.664s-4.789,10.664-10.672,10.664s-10.664-4.781-10.664-10.664S253.664,55.055,259.547,55.055z   M233.641,84.492c5.812,8.008,15.25,13.227,25.906,13.227c9.547,0,18.109-4.18,23.969-10.812l60.766,28.594H167.812L233.641,84.492z   M230,239.172c-6.336-5.891-14.078-8.875-23-8.875c-9.359,0-20.141,3.266-37.211,11.312c-15.875,7.469-32.117,11.25-48.273,11.25  c-9.188,0-17.172-1.234-23.531-2.781c1.406-3.906,3.023-8.172,4.844-12.578c11.672-28.195,20.047-33.859,20.961-34.414  c14.242-8.594,29.484-12.953,45.305-12.953c20.047,0,34.352,7.078,38.141,10.5c11.555,10.469,19.188,23.398,22.789,38.555  C230.016,239.188,230.008,239.172,230,239.172z M106.852,273.312c4.547,0.547,9.445,0.891,14.664,0.891  c16.453,0,36.031-3.266,57.359-13.297c13.914-6.547,22.391-9.281,28.125-9.281c9.25,0,11.398,7.094,17.812,16.719  c1.062,1.594,2.539,3.109,4.258,4.531c0.469,3.656,0.703,7.453,0.703,11.359c0,19.406-8.961,41.047-24.594,59.375  c-10.891,12.766-22.773,20.953-31.086,23.938h-12.203c-8.312-2.984-20.195-11.172-31.086-23.938  c-15.633-18.328-24.594-39.969-24.594-59.375C106.211,280.484,106.43,276.844,106.852,273.312z M154.82,388.891h26.352l-3.5,9.266  h-19.359L154.82,388.891z M161.258,421.281h13.477l6.672,35.547h-26.812L161.258,421.281z M469.328,456.828H314.656v-21.016  c0-4.375-0.797-8.594-2.266-12.5c17.469-7.438,27.453-14.938,32.016-23.906l0.016-0.031l0.016-0.031  c0.25-0.516,0.469-0.969,0.609-1.312l0.609-1.344c8.438,5.641,16.859,8.891,24.031,8.891c7.188,0,15.625-3.25,24.062-8.891  l0.594,1.297c0.125,0.312,0.312,0.75,0.562,1.266l0.031,0.062l0.047,0.062c5.078,10.078,17.031,18.297,38.703,26.625  c6.188,2.391,16.484,6.031,30.469,9.828l0.094,0.031c3.047,1.109,5.078,4.047,5.078,7.359V456.828z M382.156,283.188  c4.312-4.578,7.578-8.812,9.844-12.062c3.969,2.141,7.609,4.891,10.781,8.203c3.156,3.281,5.797,7.016,7.906,11.141  C399,288.797,389.281,285.875,382.156,283.188z M362.25,272.859c-10.094,9.281-21.594,15.703-34.344,19.188  c2.25-4.75,5.156-9.016,8.703-12.719c8.391-8.734,19.969-13.594,32.641-13.703C367.281,267.891,364.953,270.359,362.25,272.859z   M322.547,315.016c16.938-2.75,30.656-9.094,41.453-16.391c9.25,4.469,27.812,11.859,52.703,14c0.141,1.828,0.203,3.688,0.203,5.594  c0,15.125-7.062,32.094-19.375,46.547c-11.344,13.297-23.312,19.484-27.844,19.484c-4.5,0-16.469-6.188-27.812-19.484  c-12.328-14.453-19.406-31.422-19.406-46.547C322.469,317.141,322.5,316.078,322.547,315.016z M413.875,386.781l-0.062-8.25  c13.844-16.266,24.438-38.078,24.438-60.312c0-44.547-30.688-73.938-68.562-73.938c-37.844,0-68.531,29.391-68.531,73.938  c0,22.234,10.578,44.047,24.438,60.328l-0.062,8.25c-25.688-3.266-37.766-8.922-42.438-11.766  c-1.125-18.453-3.094-89.828,30.641-127.141c14.047-15.516,32.219-23.062,55.578-23.062c23.406,0,41.656,7.562,55.781,23.109  c33.906,37.297,32.328,108.516,31.281,126.969C451.688,377.781,439.594,383.484,413.875,386.781z M283.75,422.484l0.297,0.078  c5.547,1.969,9.266,7.266,9.266,13.25v21.016h-90.203L194.891,413l10.531-28c6.812,9.25,20.023,17.328,41.773,25.688  C254.609,413.547,266.953,417.922,283.75,422.484z M130.562,385l10.539,28l-8.211,43.828H42.664v-21.016  c0-5.969,3.688-11.234,9.219-13.219l0.414-0.125c16.648-4.531,29.016-8.891,36.477-11.75  C110.539,402.328,123.742,394.25,130.562,385z M490.656,443.219c0-12.562-7.969-23.703-19.859-27.672l-0.781-0.234  c-13.172-3.562-22.828-6.969-28.641-9.219c-1.5-0.562-2.906-1.125-4.234-1.672c26.781-6.062,35.672-14.734,37.734-17.203  l2.125-2.531l0.312-3.281c0.094-0.984,2.312-24.562-0.844-54.328c-4.344-40.812-16.312-72.25-35.531-93.438  c-18.172-20.008-42.266-30.156-71.625-30.156c-29.344,0-53.375,10.141-71.438,30.141c-45.102,49.938-36.078,144.016-35.672,148  l0.328,3.25l2.102,2.5c2.047,2.453,10.898,11.047,37.586,17.062c-1.219,0.516-2.5,1.016-3.844,1.547  c-2.406-1.531-5.016-2.797-7.812-3.734l-0.938-0.281c-15.969-4.328-27.688-8.453-34.742-11.188  c-24.977-9.594-31.492-16.531-33.148-19.812c-0.062-0.109-0.109-0.25-0.164-0.359l-0.094-13.234  c16.789-19.734,29.633-46.172,29.633-73.141c0,0,15.664-58.469-29.562-99.414c-8.289-7.508-28.023-16.023-52.453-16.023  c-17.227,0-36.781,4.234-56.328,16.023c-23.93,14.445-41.352,78.227-41.352,78.227s5.258,2.969,14.523,5.844  c-0.688,4.938-1.062,10.047-1.062,15.344c0,26.969,12.844,53.406,29.641,73.141l-0.094,13.234c-0.055,0.109-0.102,0.25-0.164,0.359  c-1.664,3.281-8.164,10.219-33.148,19.844c-7.047,2.703-18.773,6.828-34.602,11.125l-1.086,0.312  c-14.398,4.812-24.094,18.312-24.094,33.562v21.141l0,0V136.836h469.328V443.219z"/></g>        </g></svg>